SplineFontDB: 3.0
FontName: JBraille
FullName: JBraille
FamilyName: JBraille
Weight: Regular
Copyright: Copyright (c) 2017, Jeff Bishop,,,
UComments: "2017-1-19: Created with FontForge (http://fontforge.org)"
Version: 001.000
ItalicAngle: 0
UnderlinePosition: -100
UnderlineWidth: 50
Ascent: 819
Descent: 205
InvalidEm: 0
LayerCount: 2
Layer: 0 0 "Back" 1
Layer: 1 0 "Fore" 0
XUID: [1021 823 1770939839 14529401]
FSType: 0
OS2Version: 0
OS2_WeightWidthSlopeOnly: 0
OS2_UseTypoMetrics: 1
CreationTime: 1484842730
ModificationTime: 1484851341
PfmFamily: 17
TTFWeight: 400
TTFWidth: 5
LineGap: 90
VLineGap: 0
OS2TypoAscent: 0
OS2TypoAOffset: 1
OS2TypoDescent: 0
OS2TypoDOffset: 1
OS2TypoLinegap: 90
OS2WinAscent: 0
OS2WinAOffset: 1
OS2WinDescent: 0
OS2WinDOffset: 1
HheadAscent: 0
HheadAOffset: 1
HheadDescent: 0
HheadDOffset: 1
OS2Vendor: 'PfEd'
MarkAttachClasses: 1
DEI: 91125
LangName: 1033
Encoding: Original
Compacted: 1
UnicodeInterp: none
NameList: AGL For New Fonts
DisplaySize: -48
AntiAlias: 1
FitToEm: 0
WinInfo: 0 32 11
BeginPrivate: 0
EndPrivate
TeXData: 1 0 0 346030 173015 115343 0 1048576 115343 783286 444596 497025 792723 393216 433062 380633 303038 157286 324010 404750 52429 2506097 1059062 262144
BeginChars: 71 64

StartChar: uni2800
Encoding: 0 10240 0
Width: 1000
VWidth: 0
Flags: HW
LayerCount: 2
Fore
SplineSet
650 670 m 0
 650 687 663 700 680 700 c 0
 697 700 710 687 710 670 c 0
 710 653 697 640 680 640 c 0
 663 640 650 653 650 670 c 0
290 670 m 0
 290 687 303 700 320 700 c 0
 337 700 350 687 350 670 c 0
 350 653 337 640 320 640 c 0
 303 640 290 653 290 670 c 0
650 130 m 0
 650 147 663 160 680 160 c 0
 697 160 710 147 710 130 c 0
 710 113 697 100 680 100 c 0
 663 100 650 113 650 130 c 0
290 130 m 0
 290 147 303 160 320 160 c 0
 337 160 350 147 350 130 c 0
 350 113 337 100 320 100 c 0
 303 100 290 113 290 130 c 0
650 400 m 0
 650 417 663 430 680 430 c 0
 697 430 710 417 710 400 c 0
 710 383 697 370 680 370 c 0
 663 370 650 383 650 400 c 0
290 400 m 0
 290 417 303 430 320 430 c 0
 337 430 350 417 350 400 c 0
 350 383 337 370 320 370 c 0
 303 370 290 383 290 400 c 0
EndSplineSet
Validated: 1
EndChar

StartChar: uni2801
Encoding: 1 10241 1
Width: 1000
VWidth: 0
Flags: HW
LayerCount: 2
Fore
SplineSet
650 130 m 0
 650 147 663 160 680 160 c 0
 697 160 710 147 710 130 c 0
 710 113 697 100 680 100 c 0
 663 100 650 113 650 130 c 0
290 130 m 0
 290 147 303 160 320 160 c 0
 337 160 350 147 350 130 c 0
 350 113 337 100 320 100 c 0
 303 100 290 113 290 130 c 0
650 400 m 0
 650 417 663 430 680 430 c 0
 697 430 710 417 710 400 c 0
 710 383 697 370 680 370 c 0
 663 370 650 383 650 400 c 0
290 400 m 0
 290 417 303 430 320 430 c 0
 337 430 350 417 350 400 c 0
 350 383 337 370 320 370 c 0
 303 370 290 383 290 400 c 0
650 670 m 0
 650 687 663 700 680 700 c 0
 697 700 710 687 710 670 c 0
 710 653 697 640 680 640 c 0
 663 640 650 653 650 670 c 0
200 670 m 0
 200 736 254 790 320 790 c 0
 386 790 440 736 440 670 c 0
 440 604 386 550 320 550 c 0
 254 550 200 604 200 670 c 0
EndSplineSet
Validated: 1
EndChar

StartChar: uni2802
Encoding: 2 10242 2
Width: 1000
VWidth: 0
Flags: HW
LayerCount: 2
Fore
SplineSet
650 130 m 0
 650 147 663 160 680 160 c 0
 697 160 710 147 710 130 c 0
 710 113 697 100 680 100 c 0
 663 100 650 113 650 130 c 0
290 130 m 0
 290 147 303 160 320 160 c 0
 337 160 350 147 350 130 c 0
 350 113 337 100 320 100 c 0
 303 100 290 113 290 130 c 0
650 400 m 0
 650 417 663 430 680 430 c 0
 697 430 710 417 710 400 c 0
 710 383 697 370 680 370 c 0
 663 370 650 383 650 400 c 0
650 670 m 0
 650 687 663 700 680 700 c 0
 697 700 710 687 710 670 c 0
 710 653 697 640 680 640 c 0
 663 640 650 653 650 670 c 0
290 670 m 0
 290 687 303 700 320 700 c 0
 337 700 350 687 350 670 c 0
 350 653 337 640 320 640 c 0
 303 640 290 653 290 670 c 0
200 400 m 0
 200 466 254 520 320 520 c 0
 386 520 440 466 440 400 c 0
 440 334 386 280 320 280 c 0
 254 280 200 334 200 400 c 0
EndSplineSet
EndChar

StartChar: uni2803
Encoding: 3 10243 3
Width: 1000
VWidth: 0
Flags: HW
LayerCount: 2
Fore
SplineSet
650 130 m 0
 650 147 663 160 680 160 c 0
 697 160 710 147 710 130 c 0
 710 113 697 100 680 100 c 0
 663 100 650 113 650 130 c 0
290 130 m 0
 290 147 303 160 320 160 c 0
 337 160 350 147 350 130 c 0
 350 113 337 100 320 100 c 0
 303 100 290 113 290 130 c 0
650 400 m 0
 650 417 663 430 680 430 c 0
 697 430 710 417 710 400 c 0
 710 383 697 370 680 370 c 0
 663 370 650 383 650 400 c 0
650 670 m 0
 650 687 663 700 680 700 c 0
 697 700 710 687 710 670 c 0
 710 653 697 640 680 640 c 0
 663 640 650 653 650 670 c 0
200 670 m 0
 200 736 254 790 320 790 c 0
 386 790 440 736 440 670 c 0
 440 604 386 550 320 550 c 0
 254 550 200 604 200 670 c 0
200 400 m 0
 200 466 254 520 320 520 c 0
 386 520 440 466 440 400 c 0
 440 334 386 280 320 280 c 0
 254 280 200 334 200 400 c 0
EndSplineSet
Validated: 1
EndChar

StartChar: uni2804
Encoding: 4 10244 4
Width: 1000
VWidth: 0
Flags: HW
LayerCount: 2
Fore
SplineSet
650 130 m 0
 650 147 663 160 680 160 c 0
 697 160 710 147 710 130 c 0
 710 113 697 100 680 100 c 0
 663 100 650 113 650 130 c 0
650 400 m 0
 650 417 663 430 680 430 c 0
 697 430 710 417 710 400 c 0
 710 383 697 370 680 370 c 0
 663 370 650 383 650 400 c 0
290 400 m 0
 290 417 303 430 320 430 c 0
 337 430 350 417 350 400 c 0
 350 383 337 370 320 370 c 0
 303 370 290 383 290 400 c 0
650 670 m 0
 650 687 663 700 680 700 c 0
 697 700 710 687 710 670 c 0
 710 653 697 640 680 640 c 0
 663 640 650 653 650 670 c 0
290 670 m 0
 290 687 303 700 320 700 c 0
 337 700 350 687 350 670 c 0
 350 653 337 640 320 640 c 0
 303 640 290 653 290 670 c 0
200 130 m 0
 200 196 254 250 320 250 c 0
 386 250 440 196 440 130 c 0
 440 64 386 10 320 10 c 0
 254 10 200 64 200 130 c 0
EndSplineSet
Validated: 1
EndChar

StartChar: uni2805
Encoding: 5 10245 5
Width: 1000
VWidth: 0
Flags: HW
LayerCount: 2
Fore
SplineSet
650 130 m 0
 650 147 663 160 680 160 c 0
 697 160 710 147 710 130 c 0
 710 113 697 100 680 100 c 0
 663 100 650 113 650 130 c 0
650 400 m 0
 650 417 663 430 680 430 c 0
 697 430 710 417 710 400 c 0
 710 383 697 370 680 370 c 0
 663 370 650 383 650 400 c 0
290 400 m 0
 290 417 303 430 320 430 c 0
 337 430 350 417 350 400 c 0
 350 383 337 370 320 370 c 0
 303 370 290 383 290 400 c 0
650 670 m 0
 650 687 663 700 680 700 c 0
 697 700 710 687 710 670 c 0
 710 653 697 640 680 640 c 0
 663 640 650 653 650 670 c 0
200 670 m 0
 200 736 254 790 320 790 c 0
 386 790 440 736 440 670 c 0
 440 604 386 550 320 550 c 0
 254 550 200 604 200 670 c 0
200 130 m 0
 200 196 254 250 320 250 c 0
 386 250 440 196 440 130 c 0
 440 64 386 10 320 10 c 0
 254 10 200 64 200 130 c 0
EndSplineSet
Validated: 1
EndChar

StartChar: uni2806
Encoding: 6 10246 6
Width: 1000
VWidth: 0
Flags: HW
LayerCount: 2
Fore
SplineSet
650 130 m 0
 650 147 663 160 680 160 c 0
 697 160 710 147 710 130 c 0
 710 113 697 100 680 100 c 0
 663 100 650 113 650 130 c 0
650 400 m 0
 650 417 663 430 680 430 c 0
 697 430 710 417 710 400 c 0
 710 383 697 370 680 370 c 0
 663 370 650 383 650 400 c 0
650 670 m 0
 650 687 663 700 680 700 c 0
 697 700 710 687 710 670 c 0
 710 653 697 640 680 640 c 0
 663 640 650 653 650 670 c 0
290 670 m 0
 290 687 303 700 320 700 c 0
 337 700 350 687 350 670 c 0
 350 653 337 640 320 640 c 0
 303 640 290 653 290 670 c 0
200 130 m 0
 200 196 254 250 320 250 c 0
 386 250 440 196 440 130 c 0
 440 64 386 10 320 10 c 0
 254 10 200 64 200 130 c 0
200 400 m 0
 200 466 254 520 320 520 c 0
 386 520 440 466 440 400 c 0
 440 334 386 280 320 280 c 0
 254 280 200 334 200 400 c 0
EndSplineSet
Validated: 1
EndChar

StartChar: uni2807
Encoding: 7 10247 7
Width: 1000
VWidth: 0
Flags: HW
LayerCount: 2
Fore
SplineSet
650 130 m 0
 650 147 663 160 680 160 c 0
 697 160 710 147 710 130 c 0
 710 113 697 100 680 100 c 0
 663 100 650 113 650 130 c 0
650 400 m 0
 650 417 663 430 680 430 c 0
 697 430 710 417 710 400 c 0
 710 383 697 370 680 370 c 0
 663 370 650 383 650 400 c 0
650 670 m 0
 650 687 663 700 680 700 c 0
 697 700 710 687 710 670 c 0
 710 653 697 640 680 640 c 0
 663 640 650 653 650 670 c 0
200 670 m 0
 200 736 254 790 320 790 c 0
 386 790 440 736 440 670 c 0
 440 604 386 550 320 550 c 0
 254 550 200 604 200 670 c 0
200 130 m 0
 200 196 254 250 320 250 c 0
 386 250 440 196 440 130 c 0
 440 64 386 10 320 10 c 0
 254 10 200 64 200 130 c 0
200 400 m 0
 200 466 254 520 320 520 c 0
 386 520 440 466 440 400 c 0
 440 334 386 280 320 280 c 0
 254 280 200 334 200 400 c 0
EndSplineSet
Validated: 1
EndChar

StartChar: uni2808
Encoding: 8 10248 8
Width: 1000
VWidth: 0
Flags: HW
LayerCount: 2
Fore
SplineSet
650 130 m 0
 650 147 663 160 680 160 c 0
 697 160 710 147 710 130 c 0
 710 113 697 100 680 100 c 0
 663 100 650 113 650 130 c 0
290 130 m 0
 290 147 303 160 320 160 c 0
 337 160 350 147 350 130 c 0
 350 113 337 100 320 100 c 0
 303 100 290 113 290 130 c 0
650 400 m 0
 650 417 663 430 680 430 c 0
 697 430 710 417 710 400 c 0
 710 383 697 370 680 370 c 0
 663 370 650 383 650 400 c 0
290 400 m 0
 290 417 303 430 320 430 c 0
 337 430 350 417 350 400 c 0
 350 383 337 370 320 370 c 0
 303 370 290 383 290 400 c 0
290 670 m 0
 290 687 303 700 320 700 c 0
 337 700 350 687 350 670 c 0
 350 653 337 640 320 640 c 0
 303 640 290 653 290 670 c 0
560 670 m 0
 560 736 614 790 680 790 c 0
 746 790 800 736 800 670 c 0
 800 604 746 550 680 550 c 0
 614 550 560 604 560 670 c 0
EndSplineSet
Validated: 1
EndChar

StartChar: uni2809
Encoding: 9 10249 9
Width: 1000
VWidth: 0
Flags: HW
LayerCount: 2
Fore
SplineSet
650 130 m 0
 650 147 663 160 680 160 c 0
 697 160 710 147 710 130 c 0
 710 113 697 100 680 100 c 0
 663 100 650 113 650 130 c 0
290 130 m 0
 290 147 303 160 320 160 c 0
 337 160 350 147 350 130 c 0
 350 113 337 100 320 100 c 0
 303 100 290 113 290 130 c 0
650 400 m 0
 650 417 663 430 680 430 c 0
 697 430 710 417 710 400 c 0
 710 383 697 370 680 370 c 0
 663 370 650 383 650 400 c 0
290 400 m 0
 290 417 303 430 320 430 c 0
 337 430 350 417 350 400 c 0
 350 383 337 370 320 370 c 0
 303 370 290 383 290 400 c 0
200 670 m 0
 200 736 254 790 320 790 c 0
 386 790 440 736 440 670 c 0
 440 604 386 550 320 550 c 0
 254 550 200 604 200 670 c 0
560 670 m 0
 560 736 614 790 680 790 c 0
 746 790 800 736 800 670 c 0
 800 604 746 550 680 550 c 0
 614 550 560 604 560 670 c 0
EndSplineSet
Validated: 1
EndChar

StartChar: uni280A
Encoding: 10 10250 10
Width: 1000
VWidth: 0
Flags: HW
LayerCount: 2
Fore
SplineSet
650 130 m 0
 650 147 663 160 680 160 c 0
 697 160 710 147 710 130 c 0
 710 113 697 100 680 100 c 0
 663 100 650 113 650 130 c 0
290 130 m 0
 290 147 303 160 320 160 c 0
 337 160 350 147 350 130 c 0
 350 113 337 100 320 100 c 0
 303 100 290 113 290 130 c 0
650 400 m 0
 650 417 663 430 680 430 c 0
 697 430 710 417 710 400 c 0
 710 383 697 370 680 370 c 0
 663 370 650 383 650 400 c 0
290 670 m 0
 290 687 303 700 320 700 c 0
 337 700 350 687 350 670 c 0
 350 653 337 640 320 640 c 0
 303 640 290 653 290 670 c 0
560 670 m 0
 560 736 614 790 680 790 c 0
 746 790 800 736 800 670 c 0
 800 604 746 550 680 550 c 0
 614 550 560 604 560 670 c 0
200 400 m 0
 200 466 254 520 320 520 c 0
 386 520 440 466 440 400 c 0
 440 334 386 280 320 280 c 0
 254 280 200 334 200 400 c 0
EndSplineSet
Validated: 1
EndChar

StartChar: uni280B
Encoding: 11 10251 11
Width: 1000
VWidth: 0
Flags: HW
LayerCount: 2
Fore
SplineSet
650 130 m 0
 650 147 663 160 680 160 c 0
 697 160 710 147 710 130 c 0
 710 113 697 100 680 100 c 0
 663 100 650 113 650 130 c 0
290 130 m 0
 290 147 303 160 320 160 c 0
 337 160 350 147 350 130 c 0
 350 113 337 100 320 100 c 0
 303 100 290 113 290 130 c 0
650 400 m 0
 650 417 663 430 680 430 c 0
 697 430 710 417 710 400 c 0
 710 383 697 370 680 370 c 0
 663 370 650 383 650 400 c 0
200 670 m 0
 200 736 254 790 320 790 c 0
 386 790 440 736 440 670 c 0
 440 604 386 550 320 550 c 0
 254 550 200 604 200 670 c 0
560 670 m 0
 560 736 614 790 680 790 c 0
 746 790 800 736 800 670 c 0
 800 604 746 550 680 550 c 0
 614 550 560 604 560 670 c 0
200 400 m 0
 200 466 254 520 320 520 c 0
 386 520 440 466 440 400 c 0
 440 334 386 280 320 280 c 0
 254 280 200 334 200 400 c 0
EndSplineSet
Validated: 1
EndChar

StartChar: uni280C
Encoding: 12 10252 12
Width: 1000
VWidth: 0
Flags: HW
LayerCount: 2
Fore
SplineSet
650 130 m 0
 650 147 663 160 680 160 c 0
 697 160 710 147 710 130 c 0
 710 113 697 100 680 100 c 0
 663 100 650 113 650 130 c 0
650 400 m 0
 650 417 663 430 680 430 c 0
 697 430 710 417 710 400 c 0
 710 383 697 370 680 370 c 0
 663 370 650 383 650 400 c 0
290 400 m 0
 290 417 303 430 320 430 c 0
 337 430 350 417 350 400 c 0
 350 383 337 370 320 370 c 0
 303 370 290 383 290 400 c 0
290 670 m 0
 290 687 303 700 320 700 c 0
 337 700 350 687 350 670 c 0
 350 653 337 640 320 640 c 0
 303 640 290 653 290 670 c 0
560 670 m 0
 560 736 614 790 680 790 c 0
 746 790 800 736 800 670 c 0
 800 604 746 550 680 550 c 0
 614 550 560 604 560 670 c 0
200 130 m 0
 200 196 254 250 320 250 c 0
 386 250 440 196 440 130 c 0
 440 64 386 10 320 10 c 0
 254 10 200 64 200 130 c 0
EndSplineSet
Validated: 1
EndChar

StartChar: uni280D
Encoding: 13 10253 13
Width: 1000
VWidth: 0
Flags: HW
LayerCount: 2
Fore
SplineSet
650 130 m 0
 650 147 663 160 680 160 c 0
 697 160 710 147 710 130 c 0
 710 113 697 100 680 100 c 0
 663 100 650 113 650 130 c 0
650 400 m 0
 650 417 663 430 680 430 c 0
 697 430 710 417 710 400 c 0
 710 383 697 370 680 370 c 0
 663 370 650 383 650 400 c 0
290 400 m 0
 290 417 303 430 320 430 c 0
 337 430 350 417 350 400 c 0
 350 383 337 370 320 370 c 0
 303 370 290 383 290 400 c 0
200 670 m 0
 200 736 254 790 320 790 c 0
 386 790 440 736 440 670 c 0
 440 604 386 550 320 550 c 0
 254 550 200 604 200 670 c 0
560 670 m 0
 560 736 614 790 680 790 c 0
 746 790 800 736 800 670 c 0
 800 604 746 550 680 550 c 0
 614 550 560 604 560 670 c 0
200 130 m 0
 200 196 254 250 320 250 c 0
 386 250 440 196 440 130 c 0
 440 64 386 10 320 10 c 0
 254 10 200 64 200 130 c 0
EndSplineSet
Validated: 1
EndChar

StartChar: uni280E
Encoding: 14 10254 14
Width: 1000
VWidth: 0
Flags: HW
LayerCount: 2
Fore
SplineSet
650 130 m 0
 650 147 663 160 680 160 c 0
 697 160 710 147 710 130 c 0
 710 113 697 100 680 100 c 0
 663 100 650 113 650 130 c 0
650 400 m 0
 650 417 663 430 680 430 c 0
 697 430 710 417 710 400 c 0
 710 383 697 370 680 370 c 0
 663 370 650 383 650 400 c 0
290 670 m 0
 290 687 303 700 320 700 c 0
 337 700 350 687 350 670 c 0
 350 653 337 640 320 640 c 0
 303 640 290 653 290 670 c 0
560 670 m 0
 560 736 614 790 680 790 c 0
 746 790 800 736 800 670 c 0
 800 604 746 550 680 550 c 0
 614 550 560 604 560 670 c 0
200 130 m 0
 200 196 254 250 320 250 c 0
 386 250 440 196 440 130 c 0
 440 64 386 10 320 10 c 0
 254 10 200 64 200 130 c 0
200 400 m 0
 200 466 254 520 320 520 c 0
 386 520 440 466 440 400 c 0
 440 334 386 280 320 280 c 0
 254 280 200 334 200 400 c 0
EndSplineSet
Validated: 1
EndChar

StartChar: uni280F
Encoding: 15 10255 15
Width: 1000
VWidth: 0
Flags: HW
LayerCount: 2
Fore
SplineSet
650 130 m 0
 650 147 663 160 680 160 c 0
 697 160 710 147 710 130 c 0
 710 113 697 100 680 100 c 0
 663 100 650 113 650 130 c 0
650 400 m 0
 650 417 663 430 680 430 c 0
 697 430 710 417 710 400 c 0
 710 383 697 370 680 370 c 0
 663 370 650 383 650 400 c 0
200 670 m 0
 200 736 254 790 320 790 c 0
 386 790 440 736 440 670 c 0
 440 604 386 550 320 550 c 0
 254 550 200 604 200 670 c 0
560 670 m 0
 560 736 614 790 680 790 c 0
 746 790 800 736 800 670 c 0
 800 604 746 550 680 550 c 0
 614 550 560 604 560 670 c 0
200 130 m 0
 200 196 254 250 320 250 c 0
 386 250 440 196 440 130 c 0
 440 64 386 10 320 10 c 0
 254 10 200 64 200 130 c 0
200 400 m 0
 200 466 254 520 320 520 c 0
 386 520 440 466 440 400 c 0
 440 334 386 280 320 280 c 0
 254 280 200 334 200 400 c 0
EndSplineSet
Validated: 1
EndChar

StartChar: uni2810
Encoding: 16 10256 16
Width: 1000
VWidth: 0
Flags: HW
LayerCount: 2
Fore
SplineSet
650 130 m 0
 650 147 663 160 680 160 c 0
 697 160 710 147 710 130 c 0
 710 113 697 100 680 100 c 0
 663 100 650 113 650 130 c 0
290 130 m 0
 290 147 303 160 320 160 c 0
 337 160 350 147 350 130 c 0
 350 113 337 100 320 100 c 0
 303 100 290 113 290 130 c 0
290 400 m 0
 290 417 303 430 320 430 c 0
 337 430 350 417 350 400 c 0
 350 383 337 370 320 370 c 0
 303 370 290 383 290 400 c 0
650 670 m 0
 650 687 663 700 680 700 c 0
 697 700 710 687 710 670 c 0
 710 653 697 640 680 640 c 0
 663 640 650 653 650 670 c 0
290 670 m 0
 290 687 303 700 320 700 c 0
 337 700 350 687 350 670 c 0
 350 653 337 640 320 640 c 0
 303 640 290 653 290 670 c 0
560 400 m 0
 560 466 614 520 680 520 c 0
 746 520 800 466 800 400 c 0
 800 334 746 280 680 280 c 0
 614 280 560 334 560 400 c 0
EndSplineSet
Validated: 1
EndChar

StartChar: uni2811
Encoding: 17 10257 17
Width: 1000
VWidth: 0
Flags: HW
LayerCount: 2
Fore
SplineSet
650 130 m 0
 650 147 663 160 680 160 c 0
 697 160 710 147 710 130 c 0
 710 113 697 100 680 100 c 0
 663 100 650 113 650 130 c 0
290 130 m 0
 290 147 303 160 320 160 c 0
 337 160 350 147 350 130 c 0
 350 113 337 100 320 100 c 0
 303 100 290 113 290 130 c 0
290 400 m 0
 290 417 303 430 320 430 c 0
 337 430 350 417 350 400 c 0
 350 383 337 370 320 370 c 0
 303 370 290 383 290 400 c 0
650 670 m 0
 650 687 663 700 680 700 c 0
 697 700 710 687 710 670 c 0
 710 653 697 640 680 640 c 0
 663 640 650 653 650 670 c 0
200 670 m 0
 200 736 254 790 320 790 c 0
 386 790 440 736 440 670 c 0
 440 604 386 550 320 550 c 0
 254 550 200 604 200 670 c 0
560 400 m 0
 560 466 614 520 680 520 c 0
 746 520 800 466 800 400 c 0
 800 334 746 280 680 280 c 0
 614 280 560 334 560 400 c 0
EndSplineSet
Validated: 1
EndChar

StartChar: uni2812
Encoding: 18 10258 18
Width: 1000
VWidth: 0
Flags: HW
LayerCount: 2
Fore
SplineSet
650 130 m 0
 650 147 663 160 680 160 c 0
 697 160 710 147 710 130 c 0
 710 113 697 100 680 100 c 0
 663 100 650 113 650 130 c 0
290 130 m 0
 290 147 303 160 320 160 c 0
 337 160 350 147 350 130 c 0
 350 113 337 100 320 100 c 0
 303 100 290 113 290 130 c 0
650 670 m 0
 650 687 663 700 680 700 c 0
 697 700 710 687 710 670 c 0
 710 653 697 640 680 640 c 0
 663 640 650 653 650 670 c 0
290 670 m 0
 290 687 303 700 320 700 c 0
 337 700 350 687 350 670 c 0
 350 653 337 640 320 640 c 0
 303 640 290 653 290 670 c 0
560 400 m 0
 560 466 614 520 680 520 c 0
 746 520 800 466 800 400 c 0
 800 334 746 280 680 280 c 0
 614 280 560 334 560 400 c 0
200 400 m 0
 200 466 254 520 320 520 c 0
 386 520 440 466 440 400 c 0
 440 334 386 280 320 280 c 0
 254 280 200 334 200 400 c 0
EndSplineSet
Validated: 1
EndChar

StartChar: uni2813
Encoding: 19 10259 19
Width: 1000
VWidth: 0
Flags: HW
LayerCount: 2
Fore
SplineSet
650 130 m 0
 650 147 663 160 680 160 c 0
 697 160 710 147 710 130 c 0
 710 113 697 100 680 100 c 0
 663 100 650 113 650 130 c 0
290 130 m 0
 290 147 303 160 320 160 c 0
 337 160 350 147 350 130 c 0
 350 113 337 100 320 100 c 0
 303 100 290 113 290 130 c 0
650 670 m 0
 650 687 663 700 680 700 c 0
 697 700 710 687 710 670 c 0
 710 653 697 640 680 640 c 0
 663 640 650 653 650 670 c 0
200 670 m 0
 200 736 254 790 320 790 c 0
 386 790 440 736 440 670 c 0
 440 604 386 550 320 550 c 0
 254 550 200 604 200 670 c 0
560 400 m 0
 560 466 614 520 680 520 c 0
 746 520 800 466 800 400 c 0
 800 334 746 280 680 280 c 0
 614 280 560 334 560 400 c 0
200 400 m 0
 200 466 254 520 320 520 c 0
 386 520 440 466 440 400 c 0
 440 334 386 280 320 280 c 0
 254 280 200 334 200 400 c 0
EndSplineSet
Validated: 1
EndChar

StartChar: uni2814
Encoding: 20 10260 20
Width: 1000
VWidth: 0
Flags: HW
LayerCount: 2
Fore
SplineSet
650 130 m 0
 650 147 663 160 680 160 c 0
 697 160 710 147 710 130 c 0
 710 113 697 100 680 100 c 0
 663 100 650 113 650 130 c 0
290 400 m 0
 290 417 303 430 320 430 c 0
 337 430 350 417 350 400 c 0
 350 383 337 370 320 370 c 0
 303 370 290 383 290 400 c 0
650 670 m 0
 650 687 663 700 680 700 c 0
 697 700 710 687 710 670 c 0
 710 653 697 640 680 640 c 0
 663 640 650 653 650 670 c 0
290 670 m 0
 290 687 303 700 320 700 c 0
 337 700 350 687 350 670 c 0
 350 653 337 640 320 640 c 0
 303 640 290 653 290 670 c 0
200 130 m 0
 200 196 254 250 320 250 c 0
 386 250 440 196 440 130 c 0
 440 64 386 10 320 10 c 0
 254 10 200 64 200 130 c 0
560 400 m 0
 560 466 614 520 680 520 c 0
 746 520 800 466 800 400 c 0
 800 334 746 280 680 280 c 0
 614 280 560 334 560 400 c 0
EndSplineSet
Validated: 1
EndChar

StartChar: uni2815
Encoding: 21 10261 21
Width: 1000
VWidth: 0
Flags: HW
LayerCount: 2
Fore
SplineSet
650 130 m 0
 650 147 663 160 680 160 c 0
 697 160 710 147 710 130 c 0
 710 113 697 100 680 100 c 0
 663 100 650 113 650 130 c 0
290 400 m 0
 290 417 303 430 320 430 c 0
 337 430 350 417 350 400 c 0
 350 383 337 370 320 370 c 0
 303 370 290 383 290 400 c 0
650 670 m 0
 650 687 663 700 680 700 c 0
 697 700 710 687 710 670 c 0
 710 653 697 640 680 640 c 0
 663 640 650 653 650 670 c 0
200 670 m 0
 200 736 254 790 320 790 c 0
 386 790 440 736 440 670 c 0
 440 604 386 550 320 550 c 0
 254 550 200 604 200 670 c 0
200 130 m 0
 200 196 254 250 320 250 c 0
 386 250 440 196 440 130 c 0
 440 64 386 10 320 10 c 0
 254 10 200 64 200 130 c 0
560 400 m 0
 560 466 614 520 680 520 c 0
 746 520 800 466 800 400 c 0
 800 334 746 280 680 280 c 0
 614 280 560 334 560 400 c 0
EndSplineSet
Validated: 1
EndChar

StartChar: uni2816
Encoding: 22 10262 22
Width: 1000
VWidth: 0
Flags: HW
LayerCount: 2
Fore
SplineSet
650 130 m 0
 650 147 663 160 680 160 c 0
 697 160 710 147 710 130 c 0
 710 113 697 100 680 100 c 0
 663 100 650 113 650 130 c 0
650 670 m 0
 650 687 663 700 680 700 c 0
 697 700 710 687 710 670 c 0
 710 653 697 640 680 640 c 0
 663 640 650 653 650 670 c 0
290 670 m 0
 290 687 303 700 320 700 c 0
 337 700 350 687 350 670 c 0
 350 653 337 640 320 640 c 0
 303 640 290 653 290 670 c 0
200 130 m 0
 200 196 254 250 320 250 c 0
 386 250 440 196 440 130 c 0
 440 64 386 10 320 10 c 0
 254 10 200 64 200 130 c 0
560 400 m 0
 560 466 614 520 680 520 c 0
 746 520 800 466 800 400 c 0
 800 334 746 280 680 280 c 0
 614 280 560 334 560 400 c 0
200 400 m 0
 200 466 254 520 320 520 c 0
 386 520 440 466 440 400 c 0
 440 334 386 280 320 280 c 0
 254 280 200 334 200 400 c 0
EndSplineSet
Validated: 1
EndChar

StartChar: uni2817
Encoding: 23 10263 23
Width: 1000
VWidth: 0
Flags: HW
LayerCount: 2
Fore
SplineSet
650 130 m 0
 650 147 663 160 680 160 c 0
 697 160 710 147 710 130 c 0
 710 113 697 100 680 100 c 0
 663 100 650 113 650 130 c 0
650 670 m 0
 650 687 663 700 680 700 c 0
 697 700 710 687 710 670 c 0
 710 653 697 640 680 640 c 0
 663 640 650 653 650 670 c 0
200 670 m 0
 200 736 254 790 320 790 c 0
 386 790 440 736 440 670 c 0
 440 604 386 550 320 550 c 0
 254 550 200 604 200 670 c 0
200 130 m 0
 200 196 254 250 320 250 c 0
 386 250 440 196 440 130 c 0
 440 64 386 10 320 10 c 0
 254 10 200 64 200 130 c 0
560 400 m 0
 560 466 614 520 680 520 c 0
 746 520 800 466 800 400 c 0
 800 334 746 280 680 280 c 0
 614 280 560 334 560 400 c 0
200 400 m 0
 200 466 254 520 320 520 c 0
 386 520 440 466 440 400 c 0
 440 334 386 280 320 280 c 0
 254 280 200 334 200 400 c 0
EndSplineSet
Validated: 1
EndChar

StartChar: uni2818
Encoding: 24 10264 24
Width: 1000
VWidth: 0
Flags: HW
LayerCount: 2
Fore
SplineSet
650 130 m 0
 650 147 663 160 680 160 c 0
 697 160 710 147 710 130 c 0
 710 113 697 100 680 100 c 0
 663 100 650 113 650 130 c 0
290 130 m 0
 290 147 303 160 320 160 c 0
 337 160 350 147 350 130 c 0
 350 113 337 100 320 100 c 0
 303 100 290 113 290 130 c 0
290 400 m 0
 290 417 303 430 320 430 c 0
 337 430 350 417 350 400 c 0
 350 383 337 370 320 370 c 0
 303 370 290 383 290 400 c 0
290 670 m 0
 290 687 303 700 320 700 c 0
 337 700 350 687 350 670 c 0
 350 653 337 640 320 640 c 0
 303 640 290 653 290 670 c 0
560 670 m 0
 560 736 614 790 680 790 c 0
 746 790 800 736 800 670 c 0
 800 604 746 550 680 550 c 0
 614 550 560 604 560 670 c 0
560 400 m 0
 560 466 614 520 680 520 c 0
 746 520 800 466 800 400 c 0
 800 334 746 280 680 280 c 0
 614 280 560 334 560 400 c 0
EndSplineSet
Validated: 1
EndChar

StartChar: uni2819
Encoding: 25 10265 25
Width: 1000
VWidth: 0
Flags: HW
LayerCount: 2
Fore
SplineSet
650 130 m 0
 650 147 663 160 680 160 c 0
 697 160 710 147 710 130 c 0
 710 113 697 100 680 100 c 0
 663 100 650 113 650 130 c 0
290 130 m 0
 290 147 303 160 320 160 c 0
 337 160 350 147 350 130 c 0
 350 113 337 100 320 100 c 0
 303 100 290 113 290 130 c 0
290 400 m 0
 290 417 303 430 320 430 c 0
 337 430 350 417 350 400 c 0
 350 383 337 370 320 370 c 0
 303 370 290 383 290 400 c 0
200 670 m 0
 200 736 254 790 320 790 c 0
 386 790 440 736 440 670 c 0
 440 604 386 550 320 550 c 0
 254 550 200 604 200 670 c 0
560 670 m 0
 560 736 614 790 680 790 c 0
 746 790 800 736 800 670 c 0
 800 604 746 550 680 550 c 0
 614 550 560 604 560 670 c 0
560 400 m 0
 560 466 614 520 680 520 c 0
 746 520 800 466 800 400 c 0
 800 334 746 280 680 280 c 0
 614 280 560 334 560 400 c 0
EndSplineSet
Validated: 1
EndChar

StartChar: uni281A
Encoding: 26 10266 26
Width: 1000
VWidth: 0
Flags: HW
LayerCount: 2
Fore
SplineSet
650 130 m 0
 650 147 663 160 680 160 c 0
 697 160 710 147 710 130 c 0
 710 113 697 100 680 100 c 0
 663 100 650 113 650 130 c 0
290 130 m 0
 290 147 303 160 320 160 c 0
 337 160 350 147 350 130 c 0
 350 113 337 100 320 100 c 0
 303 100 290 113 290 130 c 0
290 670 m 0
 290 687 303 700 320 700 c 0
 337 700 350 687 350 670 c 0
 350 653 337 640 320 640 c 0
 303 640 290 653 290 670 c 0
560 670 m 0
 560 736 614 790 680 790 c 0
 746 790 800 736 800 670 c 0
 800 604 746 550 680 550 c 0
 614 550 560 604 560 670 c 0
560 400 m 0
 560 466 614 520 680 520 c 0
 746 520 800 466 800 400 c 0
 800 334 746 280 680 280 c 0
 614 280 560 334 560 400 c 0
200 400 m 0
 200 466 254 520 320 520 c 0
 386 520 440 466 440 400 c 0
 440 334 386 280 320 280 c 0
 254 280 200 334 200 400 c 0
EndSplineSet
Validated: 1
EndChar

StartChar: uni281B
Encoding: 27 10267 27
Width: 1000
VWidth: 0
Flags: HW
LayerCount: 2
Fore
SplineSet
650 130 m 0
 650 147 663 160 680 160 c 0
 697 160 710 147 710 130 c 0
 710 113 697 100 680 100 c 0
 663 100 650 113 650 130 c 0
290 130 m 0
 290 147 303 160 320 160 c 0
 337 160 350 147 350 130 c 0
 350 113 337 100 320 100 c 0
 303 100 290 113 290 130 c 0
200 670 m 0
 200 736 254 790 320 790 c 0
 386 790 440 736 440 670 c 0
 440 604 386 550 320 550 c 0
 254 550 200 604 200 670 c 0
560 670 m 0
 560 736 614 790 680 790 c 0
 746 790 800 736 800 670 c 0
 800 604 746 550 680 550 c 0
 614 550 560 604 560 670 c 0
560 400 m 0
 560 466 614 520 680 520 c 0
 746 520 800 466 800 400 c 0
 800 334 746 280 680 280 c 0
 614 280 560 334 560 400 c 0
200 400 m 0
 200 466 254 520 320 520 c 0
 386 520 440 466 440 400 c 0
 440 334 386 280 320 280 c 0
 254 280 200 334 200 400 c 0
EndSplineSet
Validated: 1
EndChar

StartChar: uni281C
Encoding: 28 10268 28
Width: 1000
VWidth: 0
Flags: HW
LayerCount: 2
Fore
SplineSet
650 130 m 0
 650 147 663 160 680 160 c 0
 697 160 710 147 710 130 c 0
 710 113 697 100 680 100 c 0
 663 100 650 113 650 130 c 0
290 400 m 0
 290 417 303 430 320 430 c 0
 337 430 350 417 350 400 c 0
 350 383 337 370 320 370 c 0
 303 370 290 383 290 400 c 0
290 670 m 0
 290 687 303 700 320 700 c 0
 337 700 350 687 350 670 c 0
 350 653 337 640 320 640 c 0
 303 640 290 653 290 670 c 0
560 670 m 0
 560 736 614 790 680 790 c 0
 746 790 800 736 800 670 c 0
 800 604 746 550 680 550 c 0
 614 550 560 604 560 670 c 0
200 130 m 0
 200 196 254 250 320 250 c 0
 386 250 440 196 440 130 c 0
 440 64 386 10 320 10 c 0
 254 10 200 64 200 130 c 0
560 400 m 0
 560 466 614 520 680 520 c 0
 746 520 800 466 800 400 c 0
 800 334 746 280 680 280 c 0
 614 280 560 334 560 400 c 0
EndSplineSet
Validated: 1
EndChar

StartChar: uni281D
Encoding: 29 10269 29
Width: 1000
VWidth: 0
Flags: HW
LayerCount: 2
Fore
SplineSet
650 130 m 0
 650 147 663 160 680 160 c 0
 697 160 710 147 710 130 c 0
 710 113 697 100 680 100 c 0
 663 100 650 113 650 130 c 0
290 400 m 0
 290 417 303 430 320 430 c 0
 337 430 350 417 350 400 c 0
 350 383 337 370 320 370 c 0
 303 370 290 383 290 400 c 0
200 670 m 0
 200 736 254 790 320 790 c 0
 386 790 440 736 440 670 c 0
 440 604 386 550 320 550 c 0
 254 550 200 604 200 670 c 0
560 670 m 0
 560 736 614 790 680 790 c 0
 746 790 800 736 800 670 c 0
 800 604 746 550 680 550 c 0
 614 550 560 604 560 670 c 0
200 130 m 0
 200 196 254 250 320 250 c 0
 386 250 440 196 440 130 c 0
 440 64 386 10 320 10 c 0
 254 10 200 64 200 130 c 0
560 400 m 0
 560 466 614 520 680 520 c 0
 746 520 800 466 800 400 c 0
 800 334 746 280 680 280 c 0
 614 280 560 334 560 400 c 0
EndSplineSet
Validated: 1
EndChar

StartChar: uni281E
Encoding: 30 10270 30
Width: 1000
VWidth: 0
Flags: HW
LayerCount: 2
Fore
SplineSet
650 130 m 0
 650 147 663 160 680 160 c 0
 697 160 710 147 710 130 c 0
 710 113 697 100 680 100 c 0
 663 100 650 113 650 130 c 0
290 670 m 0
 290 687 303 700 320 700 c 0
 337 700 350 687 350 670 c 0
 350 653 337 640 320 640 c 0
 303 640 290 653 290 670 c 0
560 670 m 0
 560 736 614 790 680 790 c 0
 746 790 800 736 800 670 c 0
 800 604 746 550 680 550 c 0
 614 550 560 604 560 670 c 0
200 130 m 0
 200 196 254 250 320 250 c 0
 386 250 440 196 440 130 c 0
 440 64 386 10 320 10 c 0
 254 10 200 64 200 130 c 0
560 400 m 0
 560 466 614 520 680 520 c 0
 746 520 800 466 800 400 c 0
 800 334 746 280 680 280 c 0
 614 280 560 334 560 400 c 0
200 400 m 0
 200 466 254 520 320 520 c 0
 386 520 440 466 440 400 c 0
 440 334 386 280 320 280 c 0
 254 280 200 334 200 400 c 0
EndSplineSet
Validated: 1
EndChar

StartChar: uni281F
Encoding: 31 10271 31
Width: 1000
VWidth: 0
Flags: HW
LayerCount: 2
Fore
SplineSet
650 130 m 0
 650 147 663 160 680 160 c 0
 697 160 710 147 710 130 c 0
 710 113 697 100 680 100 c 0
 663 100 650 113 650 130 c 0
200 670 m 0
 200 736 254 790 320 790 c 0
 386 790 440 736 440 670 c 0
 440 604 386 550 320 550 c 0
 254 550 200 604 200 670 c 0
560 670 m 0
 560 736 614 790 680 790 c 0
 746 790 800 736 800 670 c 0
 800 604 746 550 680 550 c 0
 614 550 560 604 560 670 c 0
200 130 m 0
 200 196 254 250 320 250 c 0
 386 250 440 196 440 130 c 0
 440 64 386 10 320 10 c 0
 254 10 200 64 200 130 c 0
560 400 m 0
 560 466 614 520 680 520 c 0
 746 520 800 466 800 400 c 0
 800 334 746 280 680 280 c 0
 614 280 560 334 560 400 c 0
200 400 m 0
 200 466 254 520 320 520 c 0
 386 520 440 466 440 400 c 0
 440 334 386 280 320 280 c 0
 254 280 200 334 200 400 c 0
EndSplineSet
Validated: 1
EndChar

StartChar: uni2820
Encoding: 32 10272 32
Width: 1000
VWidth: 0
Flags: HW
LayerCount: 2
Fore
SplineSet
290 130 m 0
 290 147 303 160 320 160 c 0
 337 160 350 147 350 130 c 0
 350 113 337 100 320 100 c 0
 303 100 290 113 290 130 c 0
650 400 m 0
 650 417 663 430 680 430 c 0
 697 430 710 417 710 400 c 0
 710 383 697 370 680 370 c 0
 663 370 650 383 650 400 c 0
290 400 m 0
 290 417 303 430 320 430 c 0
 337 430 350 417 350 400 c 0
 350 383 337 370 320 370 c 0
 303 370 290 383 290 400 c 0
650 670 m 0
 650 687 663 700 680 700 c 0
 697 700 710 687 710 670 c 0
 710 653 697 640 680 640 c 0
 663 640 650 653 650 670 c 0
290 670 m 0
 290 687 303 700 320 700 c 0
 337 700 350 687 350 670 c 0
 350 653 337 640 320 640 c 0
 303 640 290 653 290 670 c 0
560 130 m 0
 560 196 614 250 680 250 c 0
 746 250 800 196 800 130 c 0
 800 64 746 10 680 10 c 0
 614 10 560 64 560 130 c 0
EndSplineSet
Validated: 1
EndChar

StartChar: uni2821
Encoding: 33 10273 33
Width: 1000
VWidth: 0
Flags: HW
LayerCount: 2
Fore
SplineSet
290 130 m 0
 290 147 303 160 320 160 c 0
 337 160 350 147 350 130 c 0
 350 113 337 100 320 100 c 0
 303 100 290 113 290 130 c 0
650 400 m 0
 650 417 663 430 680 430 c 0
 697 430 710 417 710 400 c 0
 710 383 697 370 680 370 c 0
 663 370 650 383 650 400 c 0
290 400 m 0
 290 417 303 430 320 430 c 0
 337 430 350 417 350 400 c 0
 350 383 337 370 320 370 c 0
 303 370 290 383 290 400 c 0
650 670 m 0
 650 687 663 700 680 700 c 0
 697 700 710 687 710 670 c 0
 710 653 697 640 680 640 c 0
 663 640 650 653 650 670 c 0
200 670 m 0
 200 736 254 790 320 790 c 0
 386 790 440 736 440 670 c 0
 440 604 386 550 320 550 c 0
 254 550 200 604 200 670 c 0
560 130 m 0
 560 196 614 250 680 250 c 0
 746 250 800 196 800 130 c 0
 800 64 746 10 680 10 c 0
 614 10 560 64 560 130 c 0
EndSplineSet
Validated: 1
EndChar

StartChar: uni2822
Encoding: 34 10274 34
Width: 1000
VWidth: 0
Flags: HW
LayerCount: 2
Fore
SplineSet
290 130 m 0
 290 147 303 160 320 160 c 0
 337 160 350 147 350 130 c 0
 350 113 337 100 320 100 c 0
 303 100 290 113 290 130 c 0
650 400 m 0
 650 417 663 430 680 430 c 0
 697 430 710 417 710 400 c 0
 710 383 697 370 680 370 c 0
 663 370 650 383 650 400 c 0
650 670 m 0
 650 687 663 700 680 700 c 0
 697 700 710 687 710 670 c 0
 710 653 697 640 680 640 c 0
 663 640 650 653 650 670 c 0
290 670 m 0
 290 687 303 700 320 700 c 0
 337 700 350 687 350 670 c 0
 350 653 337 640 320 640 c 0
 303 640 290 653 290 670 c 0
560 130 m 0
 560 196 614 250 680 250 c 0
 746 250 800 196 800 130 c 0
 800 64 746 10 680 10 c 0
 614 10 560 64 560 130 c 0
200 400 m 0
 200 466 254 520 320 520 c 0
 386 520 440 466 440 400 c 0
 440 334 386 280 320 280 c 0
 254 280 200 334 200 400 c 0
EndSplineSet
Validated: 1
EndChar

StartChar: uni2823
Encoding: 35 10275 35
Width: 1000
VWidth: 0
Flags: HW
LayerCount: 2
Fore
SplineSet
290 130 m 0
 290 147 303 160 320 160 c 0
 337 160 350 147 350 130 c 0
 350 113 337 100 320 100 c 0
 303 100 290 113 290 130 c 0
650 400 m 0
 650 417 663 430 680 430 c 0
 697 430 710 417 710 400 c 0
 710 383 697 370 680 370 c 0
 663 370 650 383 650 400 c 0
650 670 m 0
 650 687 663 700 680 700 c 0
 697 700 710 687 710 670 c 0
 710 653 697 640 680 640 c 0
 663 640 650 653 650 670 c 0
200 670 m 0
 200 736 254 790 320 790 c 0
 386 790 440 736 440 670 c 0
 440 604 386 550 320 550 c 0
 254 550 200 604 200 670 c 0
560 130 m 0
 560 196 614 250 680 250 c 0
 746 250 800 196 800 130 c 0
 800 64 746 10 680 10 c 0
 614 10 560 64 560 130 c 0
200 400 m 0
 200 466 254 520 320 520 c 0
 386 520 440 466 440 400 c 0
 440 334 386 280 320 280 c 0
 254 280 200 334 200 400 c 0
EndSplineSet
Validated: 1
EndChar

StartChar: uni2824
Encoding: 36 10276 36
Width: 1000
VWidth: 0
Flags: HW
LayerCount: 2
Fore
SplineSet
650 400 m 0
 650 417 663 430 680 430 c 0
 697 430 710 417 710 400 c 0
 710 383 697 370 680 370 c 0
 663 370 650 383 650 400 c 0
290 400 m 0
 290 417 303 430 320 430 c 0
 337 430 350 417 350 400 c 0
 350 383 337 370 320 370 c 0
 303 370 290 383 290 400 c 0
650 670 m 0
 650 687 663 700 680 700 c 0
 697 700 710 687 710 670 c 0
 710 653 697 640 680 640 c 0
 663 640 650 653 650 670 c 0
290 670 m 0
 290 687 303 700 320 700 c 0
 337 700 350 687 350 670 c 0
 350 653 337 640 320 640 c 0
 303 640 290 653 290 670 c 0
560 130 m 0
 560 196 614 250 680 250 c 0
 746 250 800 196 800 130 c 0
 800 64 746 10 680 10 c 0
 614 10 560 64 560 130 c 0
200 130 m 0
 200 196 254 250 320 250 c 0
 386 250 440 196 440 130 c 0
 440 64 386 10 320 10 c 0
 254 10 200 64 200 130 c 0
EndSplineSet
Validated: 1
EndChar

StartChar: uni2825
Encoding: 37 10277 37
Width: 1000
VWidth: 0
Flags: HW
LayerCount: 2
Fore
SplineSet
650 400 m 0
 650 417 663 430 680 430 c 0
 697 430 710 417 710 400 c 0
 710 383 697 370 680 370 c 0
 663 370 650 383 650 400 c 0
290 400 m 0
 290 417 303 430 320 430 c 0
 337 430 350 417 350 400 c 0
 350 383 337 370 320 370 c 0
 303 370 290 383 290 400 c 0
650 670 m 0
 650 687 663 700 680 700 c 0
 697 700 710 687 710 670 c 0
 710 653 697 640 680 640 c 0
 663 640 650 653 650 670 c 0
200 670 m 0
 200 736 254 790 320 790 c 0
 386 790 440 736 440 670 c 0
 440 604 386 550 320 550 c 0
 254 550 200 604 200 670 c 0
560 130 m 0
 560 196 614 250 680 250 c 0
 746 250 800 196 800 130 c 0
 800 64 746 10 680 10 c 0
 614 10 560 64 560 130 c 0
200 130 m 0
 200 196 254 250 320 250 c 0
 386 250 440 196 440 130 c 0
 440 64 386 10 320 10 c 0
 254 10 200 64 200 130 c 0
EndSplineSet
Validated: 1
EndChar

StartChar: uni2826
Encoding: 38 10278 38
Width: 1000
VWidth: 0
Flags: HW
LayerCount: 2
Fore
SplineSet
650 400 m 0
 650 417 663 430 680 430 c 0
 697 430 710 417 710 400 c 0
 710 383 697 370 680 370 c 0
 663 370 650 383 650 400 c 0
650 670 m 0
 650 687 663 700 680 700 c 0
 697 700 710 687 710 670 c 0
 710 653 697 640 680 640 c 0
 663 640 650 653 650 670 c 0
290 670 m 0
 290 687 303 700 320 700 c 0
 337 700 350 687 350 670 c 0
 350 653 337 640 320 640 c 0
 303 640 290 653 290 670 c 0
560 130 m 0
 560 196 614 250 680 250 c 0
 746 250 800 196 800 130 c 0
 800 64 746 10 680 10 c 0
 614 10 560 64 560 130 c 0
200 130 m 0
 200 196 254 250 320 250 c 0
 386 250 440 196 440 130 c 0
 440 64 386 10 320 10 c 0
 254 10 200 64 200 130 c 0
200 400 m 0
 200 466 254 520 320 520 c 0
 386 520 440 466 440 400 c 0
 440 334 386 280 320 280 c 0
 254 280 200 334 200 400 c 0
EndSplineSet
Validated: 1
EndChar

StartChar: uni2827
Encoding: 39 10279 39
Width: 1000
VWidth: 0
Flags: HW
LayerCount: 2
Fore
SplineSet
650 400 m 0
 650 417 663 430 680 430 c 0
 697 430 710 417 710 400 c 0
 710 383 697 370 680 370 c 0
 663 370 650 383 650 400 c 0
650 670 m 0
 650 687 663 700 680 700 c 0
 697 700 710 687 710 670 c 0
 710 653 697 640 680 640 c 0
 663 640 650 653 650 670 c 0
200 670 m 0
 200 736 254 790 320 790 c 0
 386 790 440 736 440 670 c 0
 440 604 386 550 320 550 c 0
 254 550 200 604 200 670 c 0
560 130 m 0
 560 196 614 250 680 250 c 0
 746 250 800 196 800 130 c 0
 800 64 746 10 680 10 c 0
 614 10 560 64 560 130 c 0
200 130 m 0
 200 196 254 250 320 250 c 0
 386 250 440 196 440 130 c 0
 440 64 386 10 320 10 c 0
 254 10 200 64 200 130 c 0
200 400 m 0
 200 466 254 520 320 520 c 0
 386 520 440 466 440 400 c 0
 440 334 386 280 320 280 c 0
 254 280 200 334 200 400 c 0
EndSplineSet
Validated: 1
EndChar

StartChar: uni2828
Encoding: 40 10280 40
Width: 1000
VWidth: 0
Flags: HW
LayerCount: 2
Fore
SplineSet
290 130 m 0
 290 147 303 160 320 160 c 0
 337 160 350 147 350 130 c 0
 350 113 337 100 320 100 c 0
 303 100 290 113 290 130 c 0
650 400 m 0
 650 417 663 430 680 430 c 0
 697 430 710 417 710 400 c 0
 710 383 697 370 680 370 c 0
 663 370 650 383 650 400 c 0
290 400 m 0
 290 417 303 430 320 430 c 0
 337 430 350 417 350 400 c 0
 350 383 337 370 320 370 c 0
 303 370 290 383 290 400 c 0
290 670 m 0
 290 687 303 700 320 700 c 0
 337 700 350 687 350 670 c 0
 350 653 337 640 320 640 c 0
 303 640 290 653 290 670 c 0
560 670 m 0
 560 736 614 790 680 790 c 0
 746 790 800 736 800 670 c 0
 800 604 746 550 680 550 c 0
 614 550 560 604 560 670 c 0
560 130 m 0
 560 196 614 250 680 250 c 0
 746 250 800 196 800 130 c 0
 800 64 746 10 680 10 c 0
 614 10 560 64 560 130 c 0
EndSplineSet
Validated: 1
EndChar

StartChar: uni2829
Encoding: 41 10281 41
Width: 1000
VWidth: 0
Flags: HW
LayerCount: 2
Fore
SplineSet
290 130 m 0
 290 147 303 160 320 160 c 0
 337 160 350 147 350 130 c 0
 350 113 337 100 320 100 c 0
 303 100 290 113 290 130 c 0
650 400 m 0
 650 417 663 430 680 430 c 0
 697 430 710 417 710 400 c 0
 710 383 697 370 680 370 c 0
 663 370 650 383 650 400 c 0
290 400 m 0
 290 417 303 430 320 430 c 0
 337 430 350 417 350 400 c 0
 350 383 337 370 320 370 c 0
 303 370 290 383 290 400 c 0
200 670 m 0
 200 736 254 790 320 790 c 0
 386 790 440 736 440 670 c 0
 440 604 386 550 320 550 c 0
 254 550 200 604 200 670 c 0
560 670 m 0
 560 736 614 790 680 790 c 0
 746 790 800 736 800 670 c 0
 800 604 746 550 680 550 c 0
 614 550 560 604 560 670 c 0
560 130 m 0
 560 196 614 250 680 250 c 0
 746 250 800 196 800 130 c 0
 800 64 746 10 680 10 c 0
 614 10 560 64 560 130 c 0
EndSplineSet
Validated: 1
EndChar

StartChar: uni282A
Encoding: 42 10282 42
Width: 1000
VWidth: 0
Flags: HW
LayerCount: 2
Fore
SplineSet
290 130 m 0
 290 147 303 160 320 160 c 0
 337 160 350 147 350 130 c 0
 350 113 337 100 320 100 c 0
 303 100 290 113 290 130 c 0
650 400 m 0
 650 417 663 430 680 430 c 0
 697 430 710 417 710 400 c 0
 710 383 697 370 680 370 c 0
 663 370 650 383 650 400 c 0
290 670 m 0
 290 687 303 700 320 700 c 0
 337 700 350 687 350 670 c 0
 350 653 337 640 320 640 c 0
 303 640 290 653 290 670 c 0
560 670 m 0
 560 736 614 790 680 790 c 0
 746 790 800 736 800 670 c 0
 800 604 746 550 680 550 c 0
 614 550 560 604 560 670 c 0
560 130 m 0
 560 196 614 250 680 250 c 0
 746 250 800 196 800 130 c 0
 800 64 746 10 680 10 c 0
 614 10 560 64 560 130 c 0
200 400 m 0
 200 466 254 520 320 520 c 0
 386 520 440 466 440 400 c 0
 440 334 386 280 320 280 c 0
 254 280 200 334 200 400 c 0
EndSplineSet
Validated: 1
EndChar

StartChar: uni282B
Encoding: 43 10283 43
Width: 1000
VWidth: 0
Flags: HW
LayerCount: 2
Fore
SplineSet
290 130 m 0
 290 147 303 160 320 160 c 0
 337 160 350 147 350 130 c 0
 350 113 337 100 320 100 c 0
 303 100 290 113 290 130 c 0
650 400 m 0
 650 417 663 430 680 430 c 0
 697 430 710 417 710 400 c 0
 710 383 697 370 680 370 c 0
 663 370 650 383 650 400 c 0
200 670 m 0
 200 736 254 790 320 790 c 0
 386 790 440 736 440 670 c 0
 440 604 386 550 320 550 c 0
 254 550 200 604 200 670 c 0
560 670 m 0
 560 736 614 790 680 790 c 0
 746 790 800 736 800 670 c 0
 800 604 746 550 680 550 c 0
 614 550 560 604 560 670 c 0
560 130 m 0
 560 196 614 250 680 250 c 0
 746 250 800 196 800 130 c 0
 800 64 746 10 680 10 c 0
 614 10 560 64 560 130 c 0
200 400 m 0
 200 466 254 520 320 520 c 0
 386 520 440 466 440 400 c 0
 440 334 386 280 320 280 c 0
 254 280 200 334 200 400 c 0
EndSplineSet
Validated: 1
EndChar

StartChar: uni282C
Encoding: 44 10284 44
Width: 1000
VWidth: 0
Flags: HW
LayerCount: 2
Fore
SplineSet
650 400 m 0
 650 417 663 430 680 430 c 0
 697 430 710 417 710 400 c 0
 710 383 697 370 680 370 c 0
 663 370 650 383 650 400 c 0
290 400 m 0
 290 417 303 430 320 430 c 0
 337 430 350 417 350 400 c 0
 350 383 337 370 320 370 c 0
 303 370 290 383 290 400 c 0
290 670 m 0
 290 687 303 700 320 700 c 0
 337 700 350 687 350 670 c 0
 350 653 337 640 320 640 c 0
 303 640 290 653 290 670 c 0
560 670 m 0
 560 736 614 790 680 790 c 0
 746 790 800 736 800 670 c 0
 800 604 746 550 680 550 c 0
 614 550 560 604 560 670 c 0
560 130 m 0
 560 196 614 250 680 250 c 0
 746 250 800 196 800 130 c 0
 800 64 746 10 680 10 c 0
 614 10 560 64 560 130 c 0
200 130 m 0
 200 196 254 250 320 250 c 0
 386 250 440 196 440 130 c 0
 440 64 386 10 320 10 c 0
 254 10 200 64 200 130 c 0
EndSplineSet
Validated: 1
EndChar

StartChar: uni282D
Encoding: 45 10285 45
Width: 1000
VWidth: 0
Flags: HW
LayerCount: 2
Fore
SplineSet
650 400 m 0
 650 417 663 430 680 430 c 0
 697 430 710 417 710 400 c 0
 710 383 697 370 680 370 c 0
 663 370 650 383 650 400 c 0
290 400 m 0
 290 417 303 430 320 430 c 0
 337 430 350 417 350 400 c 0
 350 383 337 370 320 370 c 0
 303 370 290 383 290 400 c 0
200 670 m 0
 200 736 254 790 320 790 c 0
 386 790 440 736 440 670 c 0
 440 604 386 550 320 550 c 0
 254 550 200 604 200 670 c 0
560 670 m 0
 560 736 614 790 680 790 c 0
 746 790 800 736 800 670 c 0
 800 604 746 550 680 550 c 0
 614 550 560 604 560 670 c 0
560 130 m 0
 560 196 614 250 680 250 c 0
 746 250 800 196 800 130 c 0
 800 64 746 10 680 10 c 0
 614 10 560 64 560 130 c 0
200 130 m 0
 200 196 254 250 320 250 c 0
 386 250 440 196 440 130 c 0
 440 64 386 10 320 10 c 0
 254 10 200 64 200 130 c 0
EndSplineSet
Validated: 1
EndChar

StartChar: uni282E
Encoding: 46 10286 46
Width: 1000
VWidth: 0
Flags: HW
LayerCount: 2
Fore
SplineSet
650 400 m 0
 650 417 663 430 680 430 c 0
 697 430 710 417 710 400 c 0
 710 383 697 370 680 370 c 0
 663 370 650 383 650 400 c 0
290 670 m 0
 290 687 303 700 320 700 c 0
 337 700 350 687 350 670 c 0
 350 653 337 640 320 640 c 0
 303 640 290 653 290 670 c 0
560 670 m 0
 560 736 614 790 680 790 c 0
 746 790 800 736 800 670 c 0
 800 604 746 550 680 550 c 0
 614 550 560 604 560 670 c 0
560 130 m 0
 560 196 614 250 680 250 c 0
 746 250 800 196 800 130 c 0
 800 64 746 10 680 10 c 0
 614 10 560 64 560 130 c 0
200 130 m 0
 200 196 254 250 320 250 c 0
 386 250 440 196 440 130 c 0
 440 64 386 10 320 10 c 0
 254 10 200 64 200 130 c 0
200 400 m 0
 200 466 254 520 320 520 c 0
 386 520 440 466 440 400 c 0
 440 334 386 280 320 280 c 0
 254 280 200 334 200 400 c 0
EndSplineSet
Validated: 1
EndChar

StartChar: uni282F
Encoding: 47 10287 47
Width: 1000
VWidth: 0
Flags: HW
LayerCount: 2
Fore
SplineSet
650 400 m 0
 650 417 663 430 680 430 c 0
 697 430 710 417 710 400 c 0
 710 383 697 370 680 370 c 0
 663 370 650 383 650 400 c 0
200 670 m 0
 200 736 254 790 320 790 c 0
 386 790 440 736 440 670 c 0
 440 604 386 550 320 550 c 0
 254 550 200 604 200 670 c 0
560 670 m 0
 560 736 614 790 680 790 c 0
 746 790 800 736 800 670 c 0
 800 604 746 550 680 550 c 0
 614 550 560 604 560 670 c 0
560 130 m 0
 560 196 614 250 680 250 c 0
 746 250 800 196 800 130 c 0
 800 64 746 10 680 10 c 0
 614 10 560 64 560 130 c 0
200 130 m 0
 200 196 254 250 320 250 c 0
 386 250 440 196 440 130 c 0
 440 64 386 10 320 10 c 0
 254 10 200 64 200 130 c 0
200 400 m 0
 200 466 254 520 320 520 c 0
 386 520 440 466 440 400 c 0
 440 334 386 280 320 280 c 0
 254 280 200 334 200 400 c 0
EndSplineSet
Validated: 1
EndChar

StartChar: uni2830
Encoding: 48 10288 48
Width: 1000
VWidth: 0
Flags: HW
LayerCount: 2
Fore
SplineSet
290 130 m 0
 290 147 303 160 320 160 c 0
 337 160 350 147 350 130 c 0
 350 113 337 100 320 100 c 0
 303 100 290 113 290 130 c 0
290 400 m 0
 290 417 303 430 320 430 c 0
 337 430 350 417 350 400 c 0
 350 383 337 370 320 370 c 0
 303 370 290 383 290 400 c 0
650 670 m 0
 650 687 663 700 680 700 c 0
 697 700 710 687 710 670 c 0
 710 653 697 640 680 640 c 0
 663 640 650 653 650 670 c 0
290 670 m 0
 290 687 303 700 320 700 c 0
 337 700 350 687 350 670 c 0
 350 653 337 640 320 640 c 0
 303 640 290 653 290 670 c 0
560 130 m 0
 560 196 614 250 680 250 c 0
 746 250 800 196 800 130 c 0
 800 64 746 10 680 10 c 0
 614 10 560 64 560 130 c 0
560 400 m 0
 560 466 614 520 680 520 c 0
 746 520 800 466 800 400 c 0
 800 334 746 280 680 280 c 0
 614 280 560 334 560 400 c 0
EndSplineSet
Validated: 1
EndChar

StartChar: uni2831
Encoding: 49 10289 49
Width: 1000
VWidth: 0
Flags: HW
LayerCount: 2
Fore
SplineSet
290 130 m 0
 290 147 303 160 320 160 c 0
 337 160 350 147 350 130 c 0
 350 113 337 100 320 100 c 0
 303 100 290 113 290 130 c 0
290 400 m 0
 290 417 303 430 320 430 c 0
 337 430 350 417 350 400 c 0
 350 383 337 370 320 370 c 0
 303 370 290 383 290 400 c 0
650 670 m 0
 650 687 663 700 680 700 c 0
 697 700 710 687 710 670 c 0
 710 653 697 640 680 640 c 0
 663 640 650 653 650 670 c 0
200 670 m 0
 200 736 254 790 320 790 c 0
 386 790 440 736 440 670 c 0
 440 604 386 550 320 550 c 0
 254 550 200 604 200 670 c 0
560 130 m 0
 560 196 614 250 680 250 c 0
 746 250 800 196 800 130 c 0
 800 64 746 10 680 10 c 0
 614 10 560 64 560 130 c 0
560 400 m 0
 560 466 614 520 680 520 c 0
 746 520 800 466 800 400 c 0
 800 334 746 280 680 280 c 0
 614 280 560 334 560 400 c 0
EndSplineSet
Validated: 1
EndChar

StartChar: uni2832
Encoding: 50 10290 50
Width: 1000
VWidth: 0
Flags: HW
LayerCount: 2
Fore
SplineSet
290 130 m 0
 290 147 303 160 320 160 c 0
 337 160 350 147 350 130 c 0
 350 113 337 100 320 100 c 0
 303 100 290 113 290 130 c 0
650 670 m 0
 650 687 663 700 680 700 c 0
 697 700 710 687 710 670 c 0
 710 653 697 640 680 640 c 0
 663 640 650 653 650 670 c 0
290 670 m 0
 290 687 303 700 320 700 c 0
 337 700 350 687 350 670 c 0
 350 653 337 640 320 640 c 0
 303 640 290 653 290 670 c 0
560 130 m 0
 560 196 614 250 680 250 c 0
 746 250 800 196 800 130 c 0
 800 64 746 10 680 10 c 0
 614 10 560 64 560 130 c 0
560 400 m 0
 560 466 614 520 680 520 c 0
 746 520 800 466 800 400 c 0
 800 334 746 280 680 280 c 0
 614 280 560 334 560 400 c 0
200 400 m 0
 200 466 254 520 320 520 c 0
 386 520 440 466 440 400 c 0
 440 334 386 280 320 280 c 0
 254 280 200 334 200 400 c 0
EndSplineSet
Validated: 1
EndChar

StartChar: uni2833
Encoding: 51 10291 51
Width: 1000
VWidth: 0
Flags: HW
LayerCount: 2
Fore
SplineSet
290 130 m 0
 290 147 303 160 320 160 c 0
 337 160 350 147 350 130 c 0
 350 113 337 100 320 100 c 0
 303 100 290 113 290 130 c 0
650 670 m 0
 650 687 663 700 680 700 c 0
 697 700 710 687 710 670 c 0
 710 653 697 640 680 640 c 0
 663 640 650 653 650 670 c 0
200 670 m 0
 200 736 254 790 320 790 c 0
 386 790 440 736 440 670 c 0
 440 604 386 550 320 550 c 0
 254 550 200 604 200 670 c 0
560 130 m 0
 560 196 614 250 680 250 c 0
 746 250 800 196 800 130 c 0
 800 64 746 10 680 10 c 0
 614 10 560 64 560 130 c 0
560 400 m 0
 560 466 614 520 680 520 c 0
 746 520 800 466 800 400 c 0
 800 334 746 280 680 280 c 0
 614 280 560 334 560 400 c 0
200 400 m 0
 200 466 254 520 320 520 c 0
 386 520 440 466 440 400 c 0
 440 334 386 280 320 280 c 0
 254 280 200 334 200 400 c 0
EndSplineSet
Validated: 1
EndChar

StartChar: uni2834
Encoding: 52 10292 52
Width: 1000
VWidth: 0
Flags: HW
LayerCount: 2
Fore
SplineSet
290 400 m 0
 290 417 303 430 320 430 c 0
 337 430 350 417 350 400 c 0
 350 383 337 370 320 370 c 0
 303 370 290 383 290 400 c 0
650 670 m 0
 650 687 663 700 680 700 c 0
 697 700 710 687 710 670 c 0
 710 653 697 640 680 640 c 0
 663 640 650 653 650 670 c 0
290 670 m 0
 290 687 303 700 320 700 c 0
 337 700 350 687 350 670 c 0
 350 653 337 640 320 640 c 0
 303 640 290 653 290 670 c 0
560 130 m 0
 560 196 614 250 680 250 c 0
 746 250 800 196 800 130 c 0
 800 64 746 10 680 10 c 0
 614 10 560 64 560 130 c 0
200 130 m 0
 200 196 254 250 320 250 c 0
 386 250 440 196 440 130 c 0
 440 64 386 10 320 10 c 0
 254 10 200 64 200 130 c 0
560 400 m 0
 560 466 614 520 680 520 c 0
 746 520 800 466 800 400 c 0
 800 334 746 280 680 280 c 0
 614 280 560 334 560 400 c 0
EndSplineSet
Validated: 1
EndChar

StartChar: uni2835
Encoding: 53 10293 53
Width: 1000
VWidth: 0
Flags: HW
LayerCount: 2
Fore
SplineSet
290 400 m 0
 290 417 303 430 320 430 c 0
 337 430 350 417 350 400 c 0
 350 383 337 370 320 370 c 0
 303 370 290 383 290 400 c 0
650 670 m 0
 650 687 663 700 680 700 c 0
 697 700 710 687 710 670 c 0
 710 653 697 640 680 640 c 0
 663 640 650 653 650 670 c 0
200 670 m 0
 200 736 254 790 320 790 c 0
 386 790 440 736 440 670 c 0
 440 604 386 550 320 550 c 0
 254 550 200 604 200 670 c 0
560 130 m 0
 560 196 614 250 680 250 c 0
 746 250 800 196 800 130 c 0
 800 64 746 10 680 10 c 0
 614 10 560 64 560 130 c 0
200 130 m 0
 200 196 254 250 320 250 c 0
 386 250 440 196 440 130 c 0
 440 64 386 10 320 10 c 0
 254 10 200 64 200 130 c 0
560 400 m 0
 560 466 614 520 680 520 c 0
 746 520 800 466 800 400 c 0
 800 334 746 280 680 280 c 0
 614 280 560 334 560 400 c 0
EndSplineSet
Validated: 1
EndChar

StartChar: uni2836
Encoding: 54 10294 54
Width: 1000
VWidth: 0
Flags: HW
LayerCount: 2
Fore
SplineSet
650 670 m 0
 650 687 663 700 680 700 c 0
 697 700 710 687 710 670 c 0
 710 653 697 640 680 640 c 0
 663 640 650 653 650 670 c 0
290 670 m 0
 290 687 303 700 320 700 c 0
 337 700 350 687 350 670 c 0
 350 653 337 640 320 640 c 0
 303 640 290 653 290 670 c 0
560 130 m 0
 560 196 614 250 680 250 c 0
 746 250 800 196 800 130 c 0
 800 64 746 10 680 10 c 0
 614 10 560 64 560 130 c 0
200 130 m 0
 200 196 254 250 320 250 c 0
 386 250 440 196 440 130 c 0
 440 64 386 10 320 10 c 0
 254 10 200 64 200 130 c 0
560 400 m 0
 560 466 614 520 680 520 c 0
 746 520 800 466 800 400 c 0
 800 334 746 280 680 280 c 0
 614 280 560 334 560 400 c 0
200 400 m 0
 200 466 254 520 320 520 c 0
 386 520 440 466 440 400 c 0
 440 334 386 280 320 280 c 0
 254 280 200 334 200 400 c 0
EndSplineSet
Validated: 1
EndChar

StartChar: uni2837
Encoding: 55 10295 55
Width: 1000
VWidth: 0
Flags: HW
LayerCount: 2
Fore
SplineSet
650 670 m 0
 650 687 663 700 680 700 c 0
 697 700 710 687 710 670 c 0
 710 653 697 640 680 640 c 0
 663 640 650 653 650 670 c 0
200 670 m 0
 200 736 254 790 320 790 c 0
 386 790 440 736 440 670 c 0
 440 604 386 550 320 550 c 0
 254 550 200 604 200 670 c 0
560 130 m 0
 560 196 614 250 680 250 c 0
 746 250 800 196 800 130 c 0
 800 64 746 10 680 10 c 0
 614 10 560 64 560 130 c 0
200 130 m 0
 200 196 254 250 320 250 c 0
 386 250 440 196 440 130 c 0
 440 64 386 10 320 10 c 0
 254 10 200 64 200 130 c 0
560 400 m 0
 560 466 614 520 680 520 c 0
 746 520 800 466 800 400 c 0
 800 334 746 280 680 280 c 0
 614 280 560 334 560 400 c 0
200 400 m 0
 200 466 254 520 320 520 c 0
 386 520 440 466 440 400 c 0
 440 334 386 280 320 280 c 0
 254 280 200 334 200 400 c 0
EndSplineSet
Validated: 1
EndChar

StartChar: uni2838
Encoding: 56 10296 56
Width: 1000
VWidth: 0
Flags: HW
LayerCount: 2
Fore
SplineSet
290 130 m 0
 290 147 303 160 320 160 c 0
 337 160 350 147 350 130 c 0
 350 113 337 100 320 100 c 0
 303 100 290 113 290 130 c 0
290 400 m 0
 290 417 303 430 320 430 c 0
 337 430 350 417 350 400 c 0
 350 383 337 370 320 370 c 0
 303 370 290 383 290 400 c 0
290 670 m 0
 290 687 303 700 320 700 c 0
 337 700 350 687 350 670 c 0
 350 653 337 640 320 640 c 0
 303 640 290 653 290 670 c 0
560 670 m 0
 560 736 614 790 680 790 c 0
 746 790 800 736 800 670 c 0
 800 604 746 550 680 550 c 0
 614 550 560 604 560 670 c 0
560 130 m 0
 560 196 614 250 680 250 c 0
 746 250 800 196 800 130 c 0
 800 64 746 10 680 10 c 0
 614 10 560 64 560 130 c 0
560 400 m 0
 560 466 614 520 680 520 c 0
 746 520 800 466 800 400 c 0
 800 334 746 280 680 280 c 0
 614 280 560 334 560 400 c 0
EndSplineSet
Validated: 1
EndChar

StartChar: uni2839
Encoding: 57 10297 57
Width: 1000
VWidth: 0
Flags: HW
LayerCount: 2
Fore
SplineSet
290 130 m 0
 290 147 303 160 320 160 c 0
 337 160 350 147 350 130 c 0
 350 113 337 100 320 100 c 0
 303 100 290 113 290 130 c 0
290 400 m 0
 290 417 303 430 320 430 c 0
 337 430 350 417 350 400 c 0
 350 383 337 370 320 370 c 0
 303 370 290 383 290 400 c 0
200 670 m 0
 200 736 254 790 320 790 c 0
 386 790 440 736 440 670 c 0
 440 604 386 550 320 550 c 0
 254 550 200 604 200 670 c 0
560 670 m 0
 560 736 614 790 680 790 c 0
 746 790 800 736 800 670 c 0
 800 604 746 550 680 550 c 0
 614 550 560 604 560 670 c 0
560 130 m 0
 560 196 614 250 680 250 c 0
 746 250 800 196 800 130 c 0
 800 64 746 10 680 10 c 0
 614 10 560 64 560 130 c 0
560 400 m 0
 560 466 614 520 680 520 c 0
 746 520 800 466 800 400 c 0
 800 334 746 280 680 280 c 0
 614 280 560 334 560 400 c 0
EndSplineSet
Validated: 1
EndChar

StartChar: uni283A
Encoding: 58 10298 58
Width: 1000
VWidth: 0
Flags: HW
LayerCount: 2
Fore
SplineSet
290 130 m 0
 290 147 303 160 320 160 c 0
 337 160 350 147 350 130 c 0
 350 113 337 100 320 100 c 0
 303 100 290 113 290 130 c 0
290 670 m 0
 290 687 303 700 320 700 c 0
 337 700 350 687 350 670 c 0
 350 653 337 640 320 640 c 0
 303 640 290 653 290 670 c 0
560 670 m 0
 560 736 614 790 680 790 c 0
 746 790 800 736 800 670 c 0
 800 604 746 550 680 550 c 0
 614 550 560 604 560 670 c 0
560 130 m 0
 560 196 614 250 680 250 c 0
 746 250 800 196 800 130 c 0
 800 64 746 10 680 10 c 0
 614 10 560 64 560 130 c 0
560 400 m 0
 560 466 614 520 680 520 c 0
 746 520 800 466 800 400 c 0
 800 334 746 280 680 280 c 0
 614 280 560 334 560 400 c 0
200 400 m 0
 200 466 254 520 320 520 c 0
 386 520 440 466 440 400 c 0
 440 334 386 280 320 280 c 0
 254 280 200 334 200 400 c 0
EndSplineSet
Validated: 1
EndChar

StartChar: uni283B
Encoding: 59 10299 59
Width: 1000
VWidth: 0
Flags: HW
LayerCount: 2
Fore
SplineSet
290 130 m 0
 290 147 303 160 320 160 c 0
 337 160 350 147 350 130 c 0
 350 113 337 100 320 100 c 0
 303 100 290 113 290 130 c 0
200 670 m 0
 200 736 254 790 320 790 c 0
 386 790 440 736 440 670 c 0
 440 604 386 550 320 550 c 0
 254 550 200 604 200 670 c 0
560 670 m 0
 560 736 614 790 680 790 c 0
 746 790 800 736 800 670 c 0
 800 604 746 550 680 550 c 0
 614 550 560 604 560 670 c 0
560 130 m 0
 560 196 614 250 680 250 c 0
 746 250 800 196 800 130 c 0
 800 64 746 10 680 10 c 0
 614 10 560 64 560 130 c 0
560 400 m 0
 560 466 614 520 680 520 c 0
 746 520 800 466 800 400 c 0
 800 334 746 280 680 280 c 0
 614 280 560 334 560 400 c 0
200 400 m 0
 200 466 254 520 320 520 c 0
 386 520 440 466 440 400 c 0
 440 334 386 280 320 280 c 0
 254 280 200 334 200 400 c 0
EndSplineSet
Validated: 1
EndChar

StartChar: uni283C
Encoding: 60 10300 60
Width: 1000
VWidth: 0
Flags: HW
LayerCount: 2
Fore
SplineSet
290 400 m 0
 290 417 303 430 320 430 c 0
 337 430 350 417 350 400 c 0
 350 383 337 370 320 370 c 0
 303 370 290 383 290 400 c 0
290 670 m 0
 290 687 303 700 320 700 c 0
 337 700 350 687 350 670 c 0
 350 653 337 640 320 640 c 0
 303 640 290 653 290 670 c 0
560 670 m 0
 560 736 614 790 680 790 c 0
 746 790 800 736 800 670 c 0
 800 604 746 550 680 550 c 0
 614 550 560 604 560 670 c 0
560 130 m 0
 560 196 614 250 680 250 c 0
 746 250 800 196 800 130 c 0
 800 64 746 10 680 10 c 0
 614 10 560 64 560 130 c 0
200 130 m 0
 200 196 254 250 320 250 c 0
 386 250 440 196 440 130 c 0
 440 64 386 10 320 10 c 0
 254 10 200 64 200 130 c 0
560 400 m 0
 560 466 614 520 680 520 c 0
 746 520 800 466 800 400 c 0
 800 334 746 280 680 280 c 0
 614 280 560 334 560 400 c 0
EndSplineSet
Validated: 1
EndChar

StartChar: uni283D
Encoding: 61 10301 61
Width: 1000
VWidth: 0
Flags: HW
LayerCount: 2
Fore
SplineSet
290 400 m 0
 290 417 303 430 320 430 c 0
 337 430 350 417 350 400 c 0
 350 383 337 370 320 370 c 0
 303 370 290 383 290 400 c 0
200 670 m 0
 200 736 254 790 320 790 c 0
 386 790 440 736 440 670 c 0
 440 604 386 550 320 550 c 0
 254 550 200 604 200 670 c 0
560 670 m 0
 560 736 614 790 680 790 c 0
 746 790 800 736 800 670 c 0
 800 604 746 550 680 550 c 0
 614 550 560 604 560 670 c 0
560 130 m 0
 560 196 614 250 680 250 c 0
 746 250 800 196 800 130 c 0
 800 64 746 10 680 10 c 0
 614 10 560 64 560 130 c 0
200 130 m 0
 200 196 254 250 320 250 c 0
 386 250 440 196 440 130 c 0
 440 64 386 10 320 10 c 0
 254 10 200 64 200 130 c 0
560 400 m 0
 560 466 614 520 680 520 c 0
 746 520 800 466 800 400 c 0
 800 334 746 280 680 280 c 0
 614 280 560 334 560 400 c 0
EndSplineSet
Validated: 1
EndChar

StartChar: uni283E
Encoding: 62 10302 62
Width: 1000
VWidth: 0
Flags: HW
LayerCount: 2
Fore
SplineSet
290 670 m 0
 290 687 303 700 320 700 c 0
 337 700 350 687 350 670 c 0
 350 653 337 640 320 640 c 0
 303 640 290 653 290 670 c 0
560 670 m 0
 560 736 614 790 680 790 c 0
 746 790 800 736 800 670 c 0
 800 604 746 550 680 550 c 0
 614 550 560 604 560 670 c 0
560 130 m 0
 560 196 614 250 680 250 c 0
 746 250 800 196 800 130 c 0
 800 64 746 10 680 10 c 0
 614 10 560 64 560 130 c 0
200 130 m 0
 200 196 254 250 320 250 c 0
 386 250 440 196 440 130 c 0
 440 64 386 10 320 10 c 0
 254 10 200 64 200 130 c 0
560 400 m 0
 560 466 614 520 680 520 c 0
 746 520 800 466 800 400 c 0
 800 334 746 280 680 280 c 0
 614 280 560 334 560 400 c 0
200 400 m 0
 200 466 254 520 320 520 c 0
 386 520 440 466 440 400 c 0
 440 334 386 280 320 280 c 0
 254 280 200 334 200 400 c 0
EndSplineSet
Validated: 1
EndChar

StartChar: uni283F
Encoding: 63 10303 63
Width: 1000
VWidth: 0
Flags: HW
LayerCount: 2
Fore
SplineSet
200 670 m 0
 200 736 254 790 320 790 c 0
 386 790 440 736 440 670 c 0
 440 604 386 550 320 550 c 0
 254 550 200 604 200 670 c 0
560 670 m 0
 560 736 614 790 680 790 c 0
 746 790 800 736 800 670 c 0
 800 604 746 550 680 550 c 0
 614 550 560 604 560 670 c 0
560 130 m 0
 560 196 614 250 680 250 c 0
 746 250 800 196 800 130 c 0
 800 64 746 10 680 10 c 0
 614 10 560 64 560 130 c 0
200 130 m 0
 200 196 254 250 320 250 c 0
 386 250 440 196 440 130 c 0
 440 64 386 10 320 10 c 0
 254 10 200 64 200 130 c 0
560 400 m 0
 560 466 614 520 680 520 c 0
 746 520 800 466 800 400 c 0
 800 334 746 280 680 280 c 0
 614 280 560 334 560 400 c 0
200 400 m 0
 200 466 254 520 320 520 c 0
 386 520 440 466 440 400 c 0
 440 334 386 280 320 280 c 0
 254 280 200 334 200 400 c 0
EndSplineSet
Validated: 1
EndChar
